<?xml version="1.0" encoding="UTF-8" standalone="no"?>
<!-- Created with Inkscape (http://www.inkscape.org/) -->

<svg
   xmlns:dc="http://purl.org/dc/elements/1.1/"
   xmlns:cc="http://creativecommons.org/ns#"
   xmlns:rdf="http://www.w3.org/1999/02/22-rdf-syntax-ns#"
   xmlns:svg="http://www.w3.org/2000/svg"
   xmlns="http://www.w3.org/2000/svg"
   xmlns:sodipodi="http://sodipodi.sourceforge.net/DTD/sodipodi-0.dtd"
   xmlns:inkscape="http://www.inkscape.org/namespaces/inkscape"
   width="16px"
   height="16px"
   viewBox="0 0 16 16"
   version="1.1"
   id="SVGRoot"
   inkscape:version="0.92.2 (5c3e80d, 2017-08-06)"
   sodipodi:docname="gitHubIcon.svg">
  <sodipodi:namedview
     id="base"
     pagecolor="#ffffff"
     bordercolor="#666666"
     borderopacity="1.0"
     inkscape:pageopacity="0.0"
     inkscape:pageshadow="2"
     inkscape:zoom="11.313709"
     inkscape:cx="2.3459218"
     inkscape:cy="8.0344214"
     inkscape:document-units="px"
     inkscape:current-layer="layer1"
     showgrid="false"
     inkscape:window-width="1920"
     inkscape:window-height="986"
     inkscape:window-x="-11"
     inkscape:window-y="-11"
     inkscape:window-maximized="1"
     inkscape:grid-bbox="true" />
  <defs
     id="defs5777" />
  <metadata
     id="metadata5780">
    <rdf:RDF>
      <cc:Work
         rdf:about="">
        <dc:format>image/svg+xml</dc:format>
        <dc:type
           rdf:resource="http://purl.org/dc/dcmitype/StillImage" />
        <dc:title></dc:title>
      </cc:Work>
    </rdf:RDF>
  </metadata>
  <g
     id="layer1"
     inkscape:groupmode="layer"
     inkscape:label="Layer 1">
    <g
       id="g7859"
       style="fill:none;fill-opacity:1">
      <g
         id="g7854"
         style="fill:none;fill-opacity:1">
        <circle
           style="fill:none;fill-opacity:1;stroke:#000000;stroke-width:0.127;stroke-linecap:butt;stroke-linejoin:round;stroke-miterlimit:4;stroke-dasharray:none;stroke-opacity:1"
           id="path5793"
           cx="7.96875"
           cy="7.999999"
           r="7.9365001" />
        <path
           style="fill:none;stroke:#000000;stroke-width:0.1;stroke-linecap:butt;stroke-linejoin:miter;stroke-miterlimit:4;stroke-dasharray:none;stroke-opacity:1;fill-opacity:1"
           d="m 10.265625,14.15625 c 0,0 0.29688,-2.84375 -0.8125,-3 0,0 3.09398,-0.104075 3.484375,-2.609375 C 13.323983,6.0666734 11.781218,5.7747077 12,5.5 c 0,0 0.206779,-1.7691013 -0.04687,-2 -0.254126,-0.2313289 -1.72867,0.3847264 -2.046875,0.765625 0,0 -2.4229862,-0.4307044 -3.53125,0.03125 0,0 -1.7327201,-1.0328707 -2.09375,-0.8125 C 3.8557252,3.744113 4.1875,5.5 4.1875,5.5 c 0,0 -1.3589023,0.7710273 -1.125,2.578125 0.2388403,1.8452477 2.2501491,2.898437 3.8359375,3.0625 0,0 -0.6384042,0.153363 -0.640625,0.671875 0,0 -0.5546875,0.296875 -1.1640625,0.101563 C 4.8048441,11.821464 4.5,11.648438 4.03125,10.84375 3.7640771,10.385103 3.0234375,10.679688 3.0234375,10.679688 c 0.018893,0.226717 0.7009278,0.484618 0.78125,0.726562 0.2194271,0.66095 0.5976547,1.155828 0.9765625,1.28125 0.4406728,0.145867 0.7847123,0.254218 1.484375,0.04687 0,0 0.125,1.328125 0.03125,1.53125 C 6.203125,14.46875 1.515625,12.6875 1.46875,8 1.421875,3.3125 5.734375,1.484375 7.921875,1.515625 c 2.1875,0.03125 6.421875,1.515625 6.546875,6.515625 0.125,5 -4.203125,6.125 -4.203125,6.125 z"
           id="path7804"
           inkscape:connector-curvature="0"
           sodipodi:nodetypes="ccscsssscsssssssssssssc" />
      </g>
    </g>
    <path
       style="fill:#e9c87b;fill-opacity:1;stroke:#040500;stroke-width:0.1;stroke-linecap:butt;stroke-linejoin:round;stroke-miterlimit:4;stroke-dasharray:none;stroke-opacity:1"
       d="M 7.0631364,15.799079 C 6.1498483,15.692633 5.3477019,15.448407 4.4628228,15.007371 0.95930431,13.261169 -0.7079765,9.2331328 0.53151452,5.5095982 1.1820479,3.5553417 2.6083614,1.9154919 4.4727585,0.97830312 5.6595347,0.38173821 6.8697236,0.12369651 8.2611348,0.17052895 c 1.161658,0.0390993 2.1086772,0.27470143 3.1478362,0.78312757 2.205761,1.07920568 3.763118,3.10075778 4.25745,5.52644928 0.182608,0.8960577 0.182889,2.1502048 6.85e-4,3.0475631 -0.751908,3.7031351 -4.004765,6.3538471 -7.7483514,6.3140331 -0.2965133,-0.0032 -0.6815409,-0.02233 -0.8556169,-0.04262 z M 6.3589928,13.515696 c -0.0023,-0.443872 -0.016453,-0.819313 -0.031453,-0.834313 -0.015,-0.015 -0.1225001,-0.0031 -0.2388881,0.02646 -0.3230284,0.08202 -0.7880086,0.06425 -1.1342589,-0.04335 C 4.5302162,12.532679 4.2957631,12.29103 4.0028395,11.683739 3.78735,11.236984 3.7700659,11.215313 3.4464908,10.986172 3.2150421,10.82227 3.129859,10.738693 3.1689634,10.713877 c 0.086068,-0.05462 0.5301581,-0.04096 0.6386303,0.01965 0.05284,0.02952 0.1935297,0.202832 0.3126446,0.385133 0.2980957,0.456224 0.6557523,0.774862 0.9733971,0.867204 0.4628385,0.134551 1.2472276,-0.0039 1.247605,-0.220138 2.652e-4,-0.16415 0.1604611,-0.366198 0.371167,-0.468199 C 6.9604269,11.177462 6.9740215,11.08808 6.7498713,11.051208 6.0053051,10.928728 5.1181755,10.59214 4.5871631,10.23065 4.2594516,10.007558 3.7550772,9.5004753 3.5541685,9.1921087 3.1646285,8.5942199 3.0166868,7.7645768 3.17752,7.0798985 3.3077935,6.5253151 3.7116494,5.9127423 4.1459895,5.6109138 l 0.1251084,-0.08694 -0.05375,-0.285201 C 4.1877853,5.0819122 4.1613176,4.7049797 4.1585307,4.4011447 4.1528968,3.7869336 4.2056329,3.5777758 4.3769736,3.534772 4.5474789,3.4919779 4.9509465,3.6390627 5.6801318,4.0098406 L 6.3753172,4.3633302 6.6117203,4.293126 C 7.1747448,4.1259258 8.4298359,4.1217659 9.5369402,4.2834306 L 9.9084678,4.3376828 10.102461,4.188681 c 0.390024,-0.2995692 1.380546,-0.6957989 1.659004,-0.6636368 0.221503,0.025584 0.245197,0.1404141 0.217251,1.0528772 -0.01377,0.4496757 -0.03697,0.8705947 -0.05154,0.9353759 -0.02277,0.1012033 0.01922,0.1667645 0.29834,0.4657337 0.553824,0.5932197 0.72848,1.1039218 0.684614,2.0018418 -0.01366,0.2795281 -0.05613,0.6364491 -0.09438,0.7931577 -0.209351,0.8576065 -0.873963,1.5740125 -1.806699,1.9474985 -0.421548,0.168795 -0.916994,0.297791 -1.2908819,0.336097 -0.2366253,0.02424 -0.2834968,0.04265 -0.2834968,0.11133 0,0.04526 0.030531,0.08229 0.067846,0.08229 0.1966902,0 0.4477714,0.320549 0.5704987,0.728342 0.112437,0.373599 0.170117,1.022626 0.147291,1.657341 l -0.0219,0.608962 0.152593,-0.04213 c 0.265904,-0.07342 0.851084,-0.334866 1.177316,-0.526 1.842657,-1.079582 2.885081,-2.8238 2.982118,-4.9897754 C 14.574173,7.2651658 14.38259,6.1904797 13.873084,5.1127752 13.579234,4.4912261 13.222272,3.989883 12.70526,3.4725968 11.707651,2.4744587 10.473288,1.8444744 8.9264343,1.5439891 8.3407488,1.4302163 7.3811554,1.4395248 6.7985838,1.5646302 4.6907149,2.017288 2.8620341,3.3683657 2.0322085,5.0861544 1.3165868,6.5675343 1.2033117,8.3837062 1.7262479,9.9917077 2.1613648,11.32967 3.1519266,12.60514 4.444887,13.492292 c 0.6810649,0.467306 1.5114606,0.857599 1.7857027,0.839294 l 0.1325825,-0.0088 -0.00418,-0.807041 z"
       id="path7861"
       inkscape:connector-curvature="0" />
  </g>
</svg>
